<svg width="258" height="94" viewBox="0 0 258 94" fill="none" xmlns="http://www.w3.org/2000/svg">
<g clip-path="url(#clip0_1_1595)">
<path fill-rule="evenodd" clip-rule="evenodd" d="M37.7987 92.7177C17.6078 92.7177 1.23978 76.2759 1.23978 55.9933C1.23978 35.7107 17.6078 19.2689 37.7987 19.2689V18.1791C17.0086 18.1791 0.154846 35.1088 0.154846 55.9933C0.154846 76.8777 17.0086 93.8075 37.7987 93.8075C56.4253 93.8075 71.8909 80.2197 74.9099 62.3734L73.8403 62.1908C70.9084 79.5219 55.8874 92.7177 37.7987 92.7177ZM37.7987 90.1086C19.0426 90.1086 3.83657 74.8351 3.83657 55.9933C3.83657 37.152 19.0426 21.8774 37.7987 21.8774V20.7876C18.4434 20.7876 2.75163 36.5501 2.75163 55.9933C2.75163 75.437 18.4434 91.1985 37.7987 91.1985C53.2825 91.1985 66.4197 81.1133 71.0577 67.127L70.0284 66.7825C65.5335 80.3371 52.8016 90.1086 37.7987 90.1086ZM5.34896 55.9933C5.34896 73.9957 19.8777 88.59 37.7987 88.59C49.9852 88.59 60.6016 81.8418 66.1491 71.8659L65.2019 71.3344C59.8383 80.9796 49.5763 87.5001 37.7987 87.5001C20.4769 87.5001 6.43389 73.3938 6.43389 55.9933C6.43389 38.5927 20.4769 24.487 37.7987 24.487V23.3971C19.8777 23.3971 5.34896 37.9908 5.34896 55.9933ZM7.94629 55.9933C7.94629 72.555 21.3119 85.9809 37.7987 85.9809C47.7177 85.9809 56.5066 81.1215 61.9346 73.6459L61.0581 73.0037C55.8255 80.2101 47.3565 84.8911 37.7987 84.8911C21.9112 84.8911 9.03122 71.9531 9.03122 55.9933C9.03122 40.0335 21.9112 27.0955 37.7987 27.0955V26.0056C21.3119 26.0056 7.94629 39.4316 7.94629 55.9933Z" fill="#EA5933"/>
<path d="M28.4271 77.8934C27.8689 77.8934 27.3047 77.8793 26.7498 77.8509C25.2873 77.7768 23.859 77.5191 22.4768 77.269C21.9088 77.1665 21.3479 77.0646 20.7859 76.9758C20.4306 76.9197 20.1675 76.778 19.9755 76.6745L17.9282 75.5835L19.4921 73.9848C21.2166 72.222 22.8787 70.3546 24.4861 68.5482C26.9792 65.7457 29.5397 62.868 32.4294 60.2628C32.3274 60.2045 32.2265 60.1462 32.1262 60.0873C27.1745 57.1835 23.3979 52.9353 20.5792 47.1004C19.0305 43.8947 17.9266 40.3767 17.2968 36.643C16.3871 31.2495 16.3236 25.7981 17.1074 20.4406C17.3814 18.5688 17.7546 16.7003 18.1148 14.8928L18.1457 14.7408C18.2927 13.9992 18.4408 13.257 18.5813 12.5143C18.6019 12.4026 18.6334 12.2843 18.7039 12.0892L19.6169 9.22626L21.5557 11.5225L28.4336 19.6417C30.5476 13.8885 33.5919 8.36475 37.6913 2.83007L39.2368 0.743607L40.4856 3.02189L40.5197 3.0851C40.6337 3.29216 40.7519 3.50632 40.8468 3.77496C41.3166 5.11217 41.7799 6.45103 42.2437 7.79042C43.2082 10.5766 44.2053 13.4581 45.2479 16.2704C46.0686 18.4838 47.0163 20.7119 47.9331 22.866L48.6372 24.5258C48.9844 25.3475 49.3457 26.1594 49.707 26.9719L49.7314 27.028C50.1957 28.0721 50.6758 29.1515 51.1168 30.2392C51.426 30.9988 51.3653 32.0303 50.9655 32.8052C49.7102 35.2409 48.4121 37.7622 47.7644 40.4688C46.6838 44.9851 47.7855 47.4181 51.8269 49.4446C51.8242 49.4435 51.8247 49.443 51.8291 49.443C51.8448 49.443 51.9256 49.455 52.1019 49.455C52.2267 49.455 52.3536 49.4495 52.4795 49.4446C52.6113 49.4397 52.7328 49.4348 52.8511 49.4332C52.9004 49.4283 53.0957 49.4049 53.3209 49.3787C53.9859 49.3024 54.4438 49.2523 54.7432 49.2523C54.7741 49.2485 54.8278 49.2359 54.8794 49.2261C55.3557 49.1378 55.8281 49.0556 56.3006 48.9727C57.5602 48.7531 58.8627 48.5265 60.0827 48.1984C63.4384 47.296 66.7865 46.2874 69.9051 45.3316C70.7801 45.0641 71.7029 44.9278 72.6489 44.9278C75.4996 44.9278 78.1452 46.1724 79.5529 48.1755C79.931 48.7134 80.1285 49.2844 80.3026 49.7879C80.3829 50.0212 80.4642 50.2565 80.551 50.4435C80.6443 50.6451 80.7973 50.9769 80.8825 51.0641C81.5524 51.6401 82.2441 52.2057 82.9346 52.7708C83.7538 53.4399 84.5886 54.1216 85.3985 54.8316C85.8119 55.1929 87.0688 56.2931 86.6473 58.1136L86.1856 60.1064L84.3336 59.2552C84.0662 59.1321 83.802 59.0073 83.5389 58.8831C82.8652 58.5643 82.1784 58.2395 81.5069 57.9818C81.1765 57.8554 80.8478 57.7257 80.5185 57.5965L80.4588 57.5725C79.1412 57.0543 77.7796 56.5181 76.4451 56.1956C75.2853 55.9155 74.0626 55.7792 72.7075 55.7792C71.2928 55.7792 69.7565 55.9242 67.725 56.2479C63.0896 56.9879 59.2164 59.4318 55.1663 64.1725C53.3854 66.2574 51.5107 68.2708 49.7498 70.1366C47.357 72.6715 44.2921 74.5063 40.1048 75.91C36.1795 77.2259 32.2509 77.8934 28.4271 77.8934Z" fill="white"/>
<path d="M55.1979 60.0265L54.605 57.2049C54.605 57.2049 51.482 56.0753 50.9433 55.5724C50.4052 55.07 43.4215 55.0198 42.5715 38.8981L20.6786 13.0714C11.9422 47.0254 32.3687 69.0753 55.1979 60.0265Z" fill="url(#paint0_linear_1_1595)"/>
<mask id="mask0_1_1595" style="mask-type:luminance" maskUnits="userSpaceOnUse" x="-75" y="-38" width="232" height="233">
<path d="M-74.0289 -37.4802H156.626V194.215H-74.0289V-37.4802Z" fill="white"/>
</mask>
<g mask="url(#mask0_1_1595)">
<mask id="mask1_1_1595" style="mask-type:luminance" maskUnits="userSpaceOnUse" x="25" y="21" width="25" height="39">
<mask id="mask2_1_1595" style="mask-type:luminance" maskUnits="userSpaceOnUse" x="25" y="21" width="25" height="39">
<path d="M25.2386 21.2707H49.8096V59.9977H25.2386V21.2707Z" fill="white"/>
</mask>
<g mask="url(#mask2_1_1595)">
<path d="M22.1379 21.2707H49.8221V59.9977H22.1379V21.2707Z" fill="black"/>
<mask id="mask3_1_1595" style="mask-type:luminance" maskUnits="userSpaceOnUse" x="22" y="21" width="28" height="39">
<path d="M22.1379 21.2707H49.8226V59.9971H22.1379V21.2707Z" fill="white"/>
</mask>
<g mask="url(#mask3_1_1595)">
<path d="M25.2386 59.9971H49.8096V21.2701H25.2386V59.9971Z" fill="url(#paint1_linear_1_1595)"/>
</g>
</g>
</mask>
<g mask="url(#mask1_1_1595)">
<mask id="mask4_1_1595" style="mask-type:luminance" maskUnits="userSpaceOnUse" x="25" y="21" width="25" height="39">
<path d="M25.2386 21.2707H49.8096V59.9977H25.2386V21.2707Z" fill="white"/>
</mask>
<g mask="url(#mask4_1_1595)">
<path fill-rule="evenodd" clip-rule="evenodd" d="M42.5715 38.8982L27.6287 21.2709C22.1379 33.5962 26.7418 48.8532 34.9867 55.178C38.7048 58.0307 43.9163 59.4393 49.5829 59.9978C49.7934 58.6197 49.8221 57.616 49.8058 56.5022C49.0865 55.8063 48.2131 54.917 48.0379 54.5351C47.8383 54.1002 43.4921 51.5451 42.8373 45.065C42.7532 44.2318 42.7695 43.3251 42.872 42.3475C42.7397 41.2882 42.6371 40.1412 42.5715 38.8982Z" fill="#870000"/>
</g>
</g>
</g>
<path d="M20.888 75.1178C28.4532 77.6163 42.6474 75.7123 48.9861 68.7958L56.5155 58.1896L51.5314 51.2708C33.1879 58.8811 32.3145 63.1134 20.888 75.1178Z" fill="url(#paint2_linear_1_1595)"/>
<mask id="mask5_1_1595" style="mask-type:luminance" maskUnits="userSpaceOnUse" x="-75" y="-38" width="232" height="233">
<path d="M-74.0289 -37.4802H156.626V194.215H-74.0289V-37.4802Z" fill="white"/>
</mask>
<g mask="url(#mask5_1_1595)">
<mask id="mask6_1_1595" style="mask-type:luminance" maskUnits="userSpaceOnUse" x="20" y="57" width="37" height="20">
<mask id="mask7_1_1595" style="mask-type:luminance" maskUnits="userSpaceOnUse" x="20" y="57" width="37" height="20">
<path d="M20.8885 57.5428H56.5156V76.168H20.8885V57.5428Z" fill="white"/>
</mask>
<g mask="url(#mask7_1_1595)">
<path d="M20.8885 57.5435H56.5161V77.6169H20.8885V57.5435Z" fill="black"/>
<mask id="mask8_1_1595" style="mask-type:luminance" maskUnits="userSpaceOnUse" x="20" y="57" width="37" height="21">
<path d="M20.8885 57.5435H56.5156V77.6169H20.8885V57.5435Z" fill="white"/>
</mask>
<g mask="url(#mask8_1_1595)">
<path d="M20.8885 76.168H56.5161V57.5428H20.8885V76.168Z" fill="url(#paint3_linear_1_1595)"/>
</g>
</g>
</mask>
<g mask="url(#mask6_1_1595)">
<mask id="mask9_1_1595" style="mask-type:luminance" maskUnits="userSpaceOnUse" x="20" y="57" width="37" height="20">
<path d="M20.8885 57.5428H56.5156V76.168H20.8885V57.5428Z" fill="white"/>
</mask>
<g mask="url(#mask9_1_1595)">
<path fill-rule="evenodd" clip-rule="evenodd" d="M20.8882 75.1179C28.4529 77.6164 42.6471 75.7119 48.9864 68.7953L56.5158 58.1897L56.0493 57.5429C54.9448 57.7254 53.6315 58.4431 52.0708 59.8838C52.0708 59.8838 44.5593 73.4985 20.8882 75.1179Z" fill="#870000"/>
</g>
</g>
<mask id="mask10_1_1595" style="mask-type:luminance" maskUnits="userSpaceOnUse" x="34" y="51" width="23" height="18">
<mask id="mask11_1_1595" style="mask-type:luminance" maskUnits="userSpaceOnUse" x="34" y="51" width="23" height="18">
<path d="M34.9867 51.2524H56.5155V68.7953H34.9867V51.2524Z" fill="white"/>
</mask>
<g mask="url(#mask11_1_1595)">
<path d="M34.9867 51.0698H56.5161V68.7947H34.9867V51.0698Z" fill="black"/>
<mask id="mask12_1_1595" style="mask-type:luminance" maskUnits="userSpaceOnUse" x="34" y="51" width="23" height="18">
<path d="M34.9867 51.0698H56.5155V68.7947H34.9867V51.0698Z" fill="white"/>
</mask>
<g mask="url(#mask12_1_1595)">
<path d="M34.9867 68.7947H56.5161V51.2518H34.9867V68.7947Z" fill="url(#paint4_linear_1_1595)"/>
</g>
</g>
</mask>
<g mask="url(#mask10_1_1595)">
<mask id="mask13_1_1595" style="mask-type:luminance" maskUnits="userSpaceOnUse" x="34" y="51" width="23" height="18">
<path d="M34.9867 51.2524H56.5155V68.7953H34.9867V51.2524Z" fill="white"/>
</mask>
<g mask="url(#mask13_1_1595)">
<path fill-rule="evenodd" clip-rule="evenodd" d="M51.5311 51.2707C45.6768 51.0701 39.912 52.5163 34.9864 55.1777C38.5244 57.9328 42.9124 60.0465 50.3501 60.9025C50.3523 64.4276 48.9874 68.7929 48.9864 68.795L56.5152 58.1894L51.5311 51.2707Z" fill="#870000"/>
</g>
</g>
</g>
<path d="M52.0706 59.8838C52.281 58.5062 52.3103 57.5025 52.2941 56.3887C51.5748 55.6929 50.7014 54.8036 50.5262 54.4216C50.3265 53.9867 45.9803 51.4316 45.3255 44.9515C44.9702 41.439 46.398 36.6324 48.5646 30.7059L39.2966 4.45909C18.5776 32.2415 27.3287 57.4464 52.0706 59.8838Z" fill="url(#paint5_linear_1_1595)"/>
<mask id="mask14_1_1595" style="mask-type:luminance" maskUnits="userSpaceOnUse" x="0" y="0" width="88" height="94">
<path d="M0 0H87.2374V94H0V0Z" fill="white"/>
</mask>
<g mask="url(#mask14_1_1595)">
<mask id="mask15_1_1595" style="mask-type:luminance" maskUnits="userSpaceOnUse" x="27" y="4" width="17" height="46">
<mask id="mask16_1_1595" style="mask-type:luminance" maskUnits="userSpaceOnUse" x="27" y="4" width="17" height="46">
<path d="M27.7041 4.45918H43.2989V49.8193H27.7041V4.45918Z" fill="white"/>
</mask>
<g mask="url(#mask16_1_1595)">
<path d="M24.8165 4.45918H43.2984V49.8193H24.8165V4.45918Z" fill="black"/>
<mask id="mask17_1_1595" style="mask-type:luminance" maskUnits="userSpaceOnUse" x="24" y="4" width="20" height="46">
<path d="M24.8165 4.45918H43.2984V49.8193H24.8165V4.45918Z" fill="white"/>
</mask>
<g mask="url(#mask17_1_1595)">
<path d="M27.7036 49.8193H43.2984V4.45918H27.7036V49.8193Z" fill="url(#paint6_linear_1_1595)"/>
</g>
</g>
</mask>
<g mask="url(#mask15_1_1595)">
<mask id="mask18_1_1595" style="mask-type:luminance" maskUnits="userSpaceOnUse" x="27" y="4" width="17" height="46">
<path d="M27.7041 4.45918H43.2989V49.8193H27.7041V4.45918Z" fill="white"/>
</mask>
<g mask="url(#mask18_1_1595)">
<path fill-rule="evenodd" clip-rule="evenodd" d="M43.2989 15.7938L39.2966 4.45904C25.8293 22.5169 24.8171 39.4833 32.5494 49.8192C29.1335 31.5265 43.2989 15.7938 43.2989 15.7938Z" fill="#FFFF00"/>
</g>
</g>
<mask id="mask19_1_1595" style="mask-type:luminance" maskUnits="userSpaceOnUse" x="39" y="20" width="14" height="40">
<mask id="mask20_1_1595" style="mask-type:luminance" maskUnits="userSpaceOnUse" x="39" y="20" width="14" height="40">
<path d="M39.6834 20.4267H52.2979V59.8844H39.6834V20.4267Z" fill="white"/>
</mask>
<g mask="url(#mask20_1_1595)">
<path d="M35.1457 20.4273H52.3104V59.8844H35.1457V20.4273Z" fill="black"/>
<mask id="mask21_1_1595" style="mask-type:luminance" maskUnits="userSpaceOnUse" x="35" y="20" width="18" height="40">
<path d="M35.1457 20.4273H52.3099V59.8844H35.1457V20.4273Z" fill="white"/>
</mask>
<g mask="url(#mask21_1_1595)">
<path d="M39.6834 59.8844H52.2974V20.4273H39.6834V59.8844Z" fill="url(#paint7_linear_1_1595)"/>
</g>
</g>
</mask>
<g mask="url(#mask19_1_1595)">
<mask id="mask22_1_1595" style="mask-type:luminance" maskUnits="userSpaceOnUse" x="39" y="20" width="14" height="40">
<path d="M39.6834 20.4267H52.2979V59.8844H39.6834V20.4267Z" fill="white"/>
</mask>
<g mask="url(#mask22_1_1595)">
<path fill-rule="evenodd" clip-rule="evenodd" d="M48.5646 30.7057L44.935 20.427L45.759 31.5095C40.0951 38.0729 35.1462 51.6979 46.6736 58.9306C48.3747 59.3758 50.1757 59.6973 52.0711 59.8842C52.2816 58.5066 52.3103 57.5023 52.294 56.3885C51.5747 55.6932 50.7014 54.8034 50.5262 54.4214C50.3867 54.1179 48.2277 52.7812 46.7132 49.7978C43.7258 47.0525 43.0754 43.2725 46.5922 36.5575C47.1271 34.7517 47.7997 32.7987 48.5646 30.7057Z" fill="#870000"/>
</g>
</g>
</g>
<path d="M46.5521 31.4208C41.0249 38.8436 36.887 54.2303 52.0706 59.8837C51.7012 62.5004 50.8164 65.5492 48.9861 68.7958C51.3421 66.4973 53.4219 63.6327 55.8793 61.0967C58.0594 58.8478 60.5363 56.8589 63.7678 55.7549C63.7689 55.7429 63.7711 55.7315 63.7732 55.7195C50.4459 50.8763 39.7127 50.3063 49.9832 31.9341L44.9334 20.4097L46.5521 31.4208Z" fill="url(#paint8_linear_1_1595)"/>
<path d="M76.6741 52.704C76.3394 53.1263 76.0524 53.7601 76.7457 54.8597C79.4917 55.6422 82.1801 56.7936 84.644 58.0583C85.1697 57.0524 83.8238 55.646 78.813 52.0044C77.5746 52.0076 77.0739 52.1989 76.6741 52.704Z" fill="url(#paint9_linear_1_1595)"/>
<mask id="mask23_1_1595" style="mask-type:luminance" maskUnits="userSpaceOnUse" x="0" y="0" width="88" height="94">
<path d="M0 0H87.2374V94H0V0Z" fill="white"/>
</mask>
<g mask="url(#mask23_1_1595)">
<mask id="mask24_1_1595" style="mask-type:luminance" maskUnits="userSpaceOnUse" x="78" y="52" width="7" height="7">
<mask id="mask25_1_1595" style="mask-type:luminance" maskUnits="userSpaceOnUse" x="78" y="52" width="7" height="7">
<path d="M78.4009 52.0038H84.7499V58.0583H78.4009V52.0038Z" fill="white"/>
</mask>
<g mask="url(#mask25_1_1595)">
<path d="M78.4004 52.0038H85.1698V58.0583H78.4004V52.0038Z" fill="black"/>
<mask id="mask26_1_1595" style="mask-type:luminance" maskUnits="userSpaceOnUse" x="78" y="52" width="8" height="7">
<path d="M78.4004 52.0038H85.1698V58.0583H78.4004V52.0038Z" fill="white"/>
</mask>
<g mask="url(#mask26_1_1595)">
<path d="M78.4004 58.0583H84.7499V52.0038H78.4004V58.0583Z" fill="url(#paint10_linear_1_1595)"/>
</g>
</g>
</mask>
<g mask="url(#mask24_1_1595)">
<mask id="mask27_1_1595" style="mask-type:luminance" maskUnits="userSpaceOnUse" x="78" y="52" width="7" height="7">
<path d="M78.4009 52.0038H84.7499V58.0583H78.4009V52.0038Z" fill="white"/>
</mask>
<g mask="url(#mask27_1_1595)">
<path fill-rule="evenodd" clip-rule="evenodd" d="M78.8129 52.0041C83.8237 55.6463 85.1701 57.0527 84.6439 58.0586C83.2237 55.5907 78.4006 53.2764 78.4006 53.2764C78.6111 52.8917 78.7484 52.4678 78.8129 52.0041Z" fill="#FFFF00"/>
</g>
</g>
</g>
<path d="M70.9012 46.9C68.3619 47.4373 66.1264 48.7288 62.1556 49.4922C58.9122 50.2949 55.6726 50.8403 51.5471 51.2692C54.7699 52.8505 59.0803 54.0177 63.7092 55.696C63.7304 55.7037 63.7521 55.7118 63.7732 55.7195L63.7678 55.7549L63.8085 55.7391C68.3592 54.5054 71.9878 53.8738 76.7458 54.8596C77.956 54.1904 78.6417 53.2357 78.8131 52.0042C78.8131 48.7359 75.5323 46.7496 72.3713 46.7496C71.8739 46.7496 71.3797 46.7992 70.9012 46.9Z" fill="url(#paint11_linear_1_1595)"/>
<mask id="mask28_1_1595" style="mask-type:luminance" maskUnits="userSpaceOnUse" x="59" y="52" width="26" height="7">
<mask id="mask29_1_1595" style="mask-type:luminance" maskUnits="userSpaceOnUse" x="59" y="52" width="26" height="7">
<path d="M59.7367 52.4783H84.644V58.0582H59.7367V52.4783Z" fill="white"/>
</mask>
<g mask="url(#mask29_1_1595)">
<path d="M59.7367 51.4457H84.644V58.0582H59.7367V51.4457Z" fill="black"/>
<mask id="mask30_1_1595" style="mask-type:luminance" maskUnits="userSpaceOnUse" x="59" y="51" width="26" height="8">
<path d="M59.7367 51.4457H84.644V58.0582H59.7367V51.4457Z" fill="white"/>
</mask>
<g mask="url(#mask30_1_1595)">
<path d="M59.7367 58.0582H84.644V52.4778H59.7367V58.0582Z" fill="url(#paint12_linear_1_1595)"/>
</g>
</g>
</mask>
<g mask="url(#mask28_1_1595)">
<mask id="mask31_1_1595" style="mask-type:luminance" maskUnits="userSpaceOnUse" x="59" y="52" width="26" height="7">
<path d="M59.7367 52.4783H84.644V58.0582H59.7367V52.4783Z" fill="white"/>
</mask>
<g mask="url(#mask31_1_1595)">
<path fill-rule="evenodd" clip-rule="evenodd" d="M84.6438 58.0585C82.1805 56.7937 79.4915 55.6423 76.7455 54.8598C71.9876 53.8735 68.359 54.5051 63.8088 55.7393L63.7676 55.7546L63.773 55.7197C63.7518 55.7121 63.7301 55.7039 63.709 55.6963C62.3507 55.2042 61.0205 54.7552 59.7365 54.328C67.2166 51.446 73.4582 52.3936 77.8229 54.0539L77.8223 54.0545C82.1599 55.705 84.6438 58.0585 84.6438 58.0585Z" fill="#870000"/>
</g>
</g>
<mask id="mask32_1_1595" style="mask-type:luminance" maskUnits="userSpaceOnUse" x="51" y="50" width="13" height="6">
<mask id="mask33_1_1595" style="mask-type:luminance" maskUnits="userSpaceOnUse" x="51" y="50" width="13" height="6">
<path d="M51.5471 50.6966H63.7824V55.755H51.5471V50.6966Z" fill="white"/>
</mask>
<g mask="url(#mask33_1_1595)">
<path d="M51.5464 50.6966H63.7823V55.755H51.5464V50.6966Z" fill="black"/>
<mask id="mask34_1_1595" style="mask-type:luminance" maskUnits="userSpaceOnUse" x="51" y="50" width="13" height="6">
<path d="M51.5465 50.6965H63.7824V55.7544H51.5465V50.6965Z" fill="white"/>
</mask>
<g mask="url(#mask34_1_1595)">
<path d="M51.5465 55.7544H63.7824V50.696H51.5465V55.7544Z" fill="url(#paint13_linear_1_1595)"/>
</g>
</g>
</mask>
<g mask="url(#mask32_1_1595)">
<mask id="mask35_1_1595" style="mask-type:luminance" maskUnits="userSpaceOnUse" x="51" y="50" width="13" height="6">
<path d="M51.5471 50.6966H63.7824V55.755H51.5471V50.6966Z" fill="white"/>
</mask>
<g mask="url(#mask35_1_1595)">
<path fill-rule="evenodd" clip-rule="evenodd" d="M63.7732 55.7196C63.7732 55.7196 59.339 53.0866 56.0832 50.6966C54.6727 50.9113 53.1793 51.0993 51.5471 51.2693C54.7693 52.8507 59.0803 54.0173 63.7091 55.6962C63.7303 55.7038 63.752 55.712 63.7732 55.7196ZM63.7829 55.7491L63.7732 55.7196L63.7672 55.7545L63.7829 55.7491Z" fill="#870000"/>
</g>
</g>
<mask id="mask36_1_1595" style="mask-type:luminance" maskUnits="userSpaceOnUse" x="63" y="46" width="16" height="8">
<mask id="mask37_1_1595" style="mask-type:luminance" maskUnits="userSpaceOnUse" x="63" y="46" width="16" height="8">
<path d="M63.3073 46.7497H78.8126V53.2761H63.3073V46.7497Z" fill="white"/>
</mask>
<g mask="url(#mask37_1_1595)">
<path d="M63.3073 46.1563H78.8126V53.2761H63.3073V46.1563Z" fill="black"/>
<mask id="mask38_1_1595" style="mask-type:luminance" maskUnits="userSpaceOnUse" x="63" y="46" width="16" height="8">
<path d="M63.3073 46.1563H78.8126V53.2761H63.3073V46.1563Z" fill="white"/>
</mask>
<g mask="url(#mask38_1_1595)">
<path d="M63.3073 53.2761H78.8126V46.7497H63.3073V53.2761Z" fill="url(#paint14_linear_1_1595)"/>
</g>
</g>
</mask>
<g mask="url(#mask36_1_1595)">
<mask id="mask39_1_1595" style="mask-type:luminance" maskUnits="userSpaceOnUse" x="63" y="46" width="16" height="8">
<path d="M63.3073 46.7497H78.8126V53.2761H63.3073V46.7497Z" fill="white"/>
</mask>
<g mask="url(#mask39_1_1595)">
<path fill-rule="evenodd" clip-rule="evenodd" d="M78.4008 53.2764C78.3997 53.2753 75.07 47.2224 63.3094 49.2456L63.3077 49.2462C66.581 48.4751 68.6185 47.3831 70.9012 46.9003C74.418 46.1565 78.813 48.2218 78.813 52.004C78.7485 52.4677 78.6113 52.8917 78.4008 53.2764Z" fill="#FFFF00"/>
</g>
</g>
<mask id="mask40_1_1595" style="mask-type:luminance" maskUnits="userSpaceOnUse" x="43" y="20" width="21" height="40">
<mask id="mask41_1_1595" style="mask-type:luminance" maskUnits="userSpaceOnUse" x="43" y="20" width="21" height="40">
<path d="M43.8115 20.9803H63.7732V59.11H43.8115V20.9803Z" fill="white"/>
</mask>
<g mask="url(#mask41_1_1595)">
<path d="M39.3432 20.9808H63.7732V59.11H39.3432V20.9808Z" fill="black"/>
<mask id="mask42_1_1595" style="mask-type:luminance" maskUnits="userSpaceOnUse" x="39" y="20" width="25" height="40">
<path d="M39.3432 20.9808H63.7732V59.11H39.3432V20.9808Z" fill="white"/>
</mask>
<g mask="url(#mask42_1_1595)">
<path d="M43.8115 59.11H63.7732V20.9808H43.8115V59.11Z" fill="url(#paint15_linear_1_1595)"/>
</g>
</g>
</mask>
<g mask="url(#mask40_1_1595)">
<mask id="mask43_1_1595" style="mask-type:luminance" maskUnits="userSpaceOnUse" x="43" y="20" width="21" height="40">
<path d="M43.8115 20.9803H63.7732V59.11H43.8115V20.9803Z" fill="white"/>
</mask>
<g mask="url(#mask43_1_1595)">
<path fill-rule="evenodd" clip-rule="evenodd" d="M49.9826 31.9344L45.1834 20.9806C45.1715 20.9958 45.1573 21.01 45.146 21.0247L48.2011 31.7094C39.3432 45.6646 44.5444 53.5059 57.9579 59.095L57.9932 59.1097C59.658 57.706 61.5322 56.5187 63.7672 55.7547C63.7688 55.7433 63.771 55.7313 63.7732 55.7198C50.4459 50.8767 39.7121 50.3067 49.9826 31.9344Z" fill="#FFFF00"/>
</g>
</g>
<path d="M99.847 43.6098H116.73V62.5433H111.506V48.2078H105.071V62.5433H99.847V43.6098Z" fill="#EA5933"/>
<path d="M132.51 55.0779L130.41 49.6958L128.283 55.0779H132.51ZM127.933 43.4745H132.968L140.992 62.5432H135.391L134.018 59.162H126.747L125.402 62.5432H119.909L127.933 43.4745Z" fill="#EA5933"/>
<mask id="mask44_1_1595" style="mask-type:luminance" maskUnits="userSpaceOnUse" x="99" y="42" width="163" height="37">
<path d="M99.3021 42.8119H261.712V78.1782H99.3021V42.8119Z" fill="white"/>
</mask>
<g mask="url(#mask44_1_1595)">
<path d="M142.123 62.3811L142.473 58.3509C142.716 58.4048 143.443 58.4593 143.685 58.4593C145.165 58.4593 146.566 57.7019 146.566 46.2337V43.6099H161.053V62.5434H155.829V48.2079H151.44V48.9381C151.44 60.4875 148.909 62.8137 145.246 62.8137C143.873 62.8137 142.527 62.5162 142.123 62.3811Z" fill="#EA5933"/>
<path d="M173.682 58.1346C175.405 58.1346 176.428 57.3504 176.428 55.8623C176.428 54.5371 175.405 53.6717 173.708 53.6717H170.962V58.1346H173.682ZM165.738 43.6099H170.962V49.5609H173.816C178.34 49.5609 181.652 51.7242 181.652 55.998C181.652 60.0821 178.69 62.5435 174.086 62.5435H165.738V43.6099Z" fill="#EA5933"/>
<path d="M185.206 43.6097H190.726L195.223 50.9398L199.72 43.6097H205.239V62.5432H200.043V51.67L195.223 59.0814H195.115L190.323 51.7245V62.5432H185.206V43.6097Z" fill="#EA5933"/>
<path d="M210.034 43.6096H215.284V62.5431H210.034V43.6096Z" fill="#EA5933"/>
<path d="M227.778 53.0227C229.636 53.0227 230.767 52.049 230.767 50.5069C230.767 48.8841 229.636 48.0183 227.751 48.0183H225.301V53.0227H227.778ZM220.077 43.6099H228.155C232.921 43.6099 235.991 46.0713 235.991 50.3178C235.991 54.7806 232.571 57.1336 227.885 57.1336H225.301V62.5435H220.077V43.6099Z" fill="#EA5933"/>
<path d="M248.755 55.0779L246.654 49.6958L244.527 55.0779H248.755ZM244.177 43.4745H249.213L257.236 62.5432H251.636L250.262 59.162H242.992L241.646 62.5432H236.153L244.177 43.4745Z" fill="#EA5933"/>
</g>
<mask id="mask45_1_1595" style="mask-type:luminance" maskUnits="userSpaceOnUse" x="99" y="43" width="159" height="34">
<path d="M99 43.0001H257.698V76.505H99V43.0001Z" fill="white"/>
</mask>
<g mask="url(#mask45_1_1595)">
<path d="M99.4604 70.2914C99.4604 68.1744 101.036 66.4204 103.229 66.4204C104.58 66.4204 105.368 66.9233 106.114 67.629L105.56 68.2278C104.932 67.629 104.229 67.2012 103.218 67.2012C101.568 67.2012 100.333 68.5488 100.333 70.2914C100.333 72.0237 101.579 73.3816 103.218 73.3816C104.24 73.3816 104.911 72.986 105.624 72.3016L106.178 72.8901C105.4 73.6813 104.549 74.1625 103.197 74.1625C101.047 74.1625 99.4604 72.4618 99.4604 70.2914Z" fill="#F2F2F2"/>
<path d="M107.511 68.506H112.28V74.0342H111.46V69.233H108.331V74.0342H107.511V68.506Z" fill="#F2F2F2"/>
<path d="M118.669 71.2753C118.669 70.0879 117.786 69.1153 116.625 69.1153C115.433 69.1153 114.613 70.0879 114.613 71.2753C114.613 72.4621 115.487 73.4244 116.646 73.4244C117.839 73.4244 118.669 72.4621 118.669 71.2753ZM113.773 71.2753C113.773 69.7141 114.986 68.3878 116.646 68.3878C118.297 68.3878 119.511 69.6929 119.511 71.2753C119.511 72.8365 118.286 74.1622 116.625 74.1622C114.976 74.1622 113.773 72.8577 113.773 71.2753Z" fill="#F2F2F2"/>
<path d="M125.708 71.2646C125.708 69.9595 124.814 69.1258 123.771 69.1258C122.749 69.1258 121.78 69.9922 121.78 71.2755C121.78 72.5582 122.749 73.4137 123.771 73.4137C124.835 73.4137 125.708 72.6225 125.708 71.2646ZM120.992 68.5063H121.811V69.6179C122.259 68.9547 122.908 68.388 123.919 68.388C125.239 68.388 126.549 69.4364 126.549 71.2755C126.549 73.0824 125.25 74.1515 123.919 74.1515C122.897 74.1515 122.238 73.5952 121.811 72.9756V75.7449H120.992V68.5063Z" fill="#F2F2F2"/>
<path d="M129.181 69.233H127.211V68.506H131.98V69.233H130.011V74.0342H129.181V69.233Z" fill="#F2F2F2"/>
<path d="M133.174 68.506H133.994V72.879L137.262 68.506H138.06V74.0342H137.241V69.6607L133.962 74.0342H133.174V68.506Z" fill="#F2F2F2"/>
<path d="M142.544 73.3283C143.332 73.3283 143.811 72.9757 143.811 72.3981C143.811 71.8635 143.332 71.5426 142.438 71.5426H140.713V73.3283H142.544ZM142.406 70.8794C143.066 70.8794 143.524 70.5699 143.524 69.9923C143.524 69.5324 143.141 69.2115 142.427 69.2115H140.713V70.8794H142.406ZM139.894 68.5058H142.555C143.651 68.5058 144.354 69.0507 144.354 69.8855C144.354 70.6124 143.896 70.965 143.438 71.1579C144.098 71.3393 144.652 71.7458 144.652 72.5262C144.652 73.4563 143.864 74.0339 142.65 74.0339H139.894V68.5058Z" fill="#F2F2F2"/>
<path d="M146.134 68.506H146.953V70.89H150.125V68.506H150.945V74.0342H150.125V71.6175H146.953V74.0342H146.134V68.506Z" fill="#F2F2F2"/>
<path d="M157.334 71.2753C157.334 70.0879 156.451 69.1153 155.29 69.1153C154.098 69.1153 153.278 70.0879 153.278 71.2753C153.278 72.4621 154.152 73.4244 155.311 73.4244C156.504 73.4244 157.334 72.4621 157.334 71.2753ZM152.438 71.2753C152.438 69.7141 153.651 68.3878 155.311 68.3878C156.962 68.3878 158.176 69.6929 158.176 71.2753C158.176 72.8365 156.951 74.1622 155.29 74.1622C153.641 74.1622 152.438 72.8577 152.438 71.2753Z" fill="#F2F2F2"/>
<path d="M159.434 70.3877H162.393V71.2542H159.434V70.3877Z" fill="#F2F2F2"/>
<path d="M163.661 71.2753C163.661 69.7141 164.875 68.3878 166.482 68.3878C167.525 68.3878 168.174 68.8264 168.685 69.3719L168.164 69.9277C167.727 69.4684 167.216 69.1153 166.472 69.1153C165.354 69.1153 164.502 70.0667 164.502 71.2753C164.502 72.4725 165.375 73.4244 166.524 73.4244C167.227 73.4244 167.749 73.0604 168.185 72.5902L168.728 73.0931C168.174 73.7132 167.515 74.1622 166.482 74.1622C164.875 74.1622 163.661 72.8474 163.661 71.2753Z" fill="#F2F2F2"/>
<path d="M171.413 69.233H169.443V68.506H174.212V69.233H172.243V74.0342H171.413V69.233Z" fill="#F2F2F2"/>
<path d="M180.123 71.2646C180.123 69.9595 179.229 69.1258 178.185 69.1258C177.163 69.1258 176.195 69.9922 176.195 71.2755C176.195 72.5582 177.163 73.4137 178.185 73.4137C179.25 73.4137 180.123 72.6225 180.123 71.2646ZM175.407 68.5063H176.226V69.6179C176.674 68.9547 177.323 68.388 178.334 68.388C179.654 68.388 180.963 69.4364 180.963 71.2755C180.963 73.0824 179.665 74.1515 178.334 74.1515C177.312 74.1515 176.652 73.5952 176.226 72.9756V75.7449H175.407V68.5063Z" fill="#F2F2F2"/>
<path d="M182.552 68.5062H183.372V74.0343H182.552V68.5062ZM182.499 66.3886H183.436V67.2975H182.499V66.3886Z" fill="#F2F2F2"/>
<path d="M184.352 74.034L184.448 73.3283C184.554 73.3604 184.746 73.4029 184.841 73.4029C185.501 73.4029 186.055 73.1147 186.055 68.9657V68.5058H189.95V74.034H189.131V69.2327H186.832V69.3613C186.832 73.6705 186.055 74.1195 185.012 74.1195C184.831 74.1195 184.521 74.0765 184.352 74.034Z" fill="#F2F2F2"/>
<path d="M195.819 70.9437C195.723 69.9384 195.148 69.0834 194.062 69.0834C193.115 69.0834 192.391 69.8746 192.274 70.9437H195.819ZM191.444 71.275C191.444 69.6714 192.561 68.3881 194.083 68.3881C195.712 68.3881 196.649 69.6926 196.649 71.3181C196.649 71.3927 196.649 71.4783 196.638 71.6069H192.274C192.391 72.7719 193.242 73.446 194.211 73.446C194.967 73.446 195.499 73.1354 195.946 72.6651L196.457 73.125C195.903 73.7451 195.233 74.162 194.19 74.162C192.678 74.162 191.444 72.997 191.444 71.275Z" fill="#F2F2F2"/>
<path d="M202.836 74.0339H198.088V68.5058H198.908V73.307H201.994V68.5058H202.815V73.307H203.644L203.517 75.4131H202.836V74.0339Z" fill="#F2F2F2"/>
<path d="M207.085 73.307C207.905 73.307 208.405 72.9545 208.405 72.2586C208.405 71.6172 207.894 71.2859 207.053 71.2859H205.595V73.307H207.085ZM204.775 68.5058H205.595V70.5803H207.064C208.256 70.5803 209.235 71.0718 209.235 72.2374C209.235 73.3392 208.416 74.0339 207.16 74.0339H204.775V68.5058Z" fill="#F2F2F2"/>
<path d="M210.504 68.506H211.324V71.6921L214.336 68.506H215.348L213.048 70.9015L215.411 74.0342H214.443L212.484 71.4998L211.324 72.697V74.0342H210.504V68.506Z" fill="#F2F2F2"/>
<path d="M216.542 68.506H217.361V72.879L220.629 68.506H221.427V74.0342H220.608V69.6607L217.329 74.0342H216.542V68.506Z" fill="#F2F2F2"/>
<path d="M224.176 66.4099L224.74 66.2922C224.868 66.7521 225.156 67.0409 225.677 67.0409C226.199 67.0409 226.486 66.7521 226.614 66.2922L227.178 66.4099C227.05 67.1695 226.475 67.715 225.677 67.715C224.879 67.715 224.304 67.1695 224.176 66.4099ZM223.261 68.5062H224.08V72.8791L227.349 68.5062H228.147V74.0338H227.327V69.6609L224.049 74.0338H223.261V68.5062Z" fill="#F2F2F2"/>
<path d="M233.175 68.506H233.994V71.6921L237.007 68.506H238.018L235.718 70.9015L238.082 74.0342H237.114L235.154 71.4998L233.994 72.697V74.0342H233.175V68.506Z" fill="#F2F2F2"/>
<path d="M238.286 74.034L238.382 73.3283C238.489 73.3604 238.68 73.4029 238.776 73.4029C239.436 73.4029 239.99 73.1147 239.99 68.9657V68.5058H243.885V74.034H243.066V69.2327H240.766V69.3613C240.766 73.6705 239.99 74.1195 238.946 74.1195C238.765 74.1195 238.456 74.0765 238.286 74.034Z" fill="#F2F2F2"/>
<path d="M245.399 75.4989L245.676 74.8467C245.942 74.9856 246.187 75.0499 246.538 75.0499C247.028 75.0499 247.336 74.7933 247.667 74.0124L245.165 68.5061H246.07L248.071 73.1144L249.838 68.5061H250.711L248.401 74.2162C247.933 75.36 247.4 75.7769 246.57 75.7769C246.112 75.7769 245.772 75.6804 245.399 75.4989Z" fill="#F2F2F2"/>
<path d="M256.568 71.3392C256.568 70.1845 255.706 69.2543 254.599 69.2543C253.46 69.2543 252.651 70.1845 252.651 71.3392C252.651 72.4938 253.513 73.4245 254.62 73.4245C255.759 73.4245 256.568 72.4938 256.568 71.3392ZM251.81 71.0509C251.81 69.2647 251.948 67.5542 253.864 67.0943L256.93 66.3674L257.09 67.0621L254.109 67.8C252.97 68.0888 252.587 68.7089 252.502 69.7676C252.885 69.1154 253.609 68.5699 254.779 68.5699C256.217 68.5699 257.42 69.7998 257.42 71.3179C257.42 72.8578 256.227 74.1624 254.599 74.1624C252.927 74.1624 251.81 72.9755 251.81 71.0509Z" fill="#F2F2F2"/>
</g>
</g>
<defs>
<linearGradient id="paint0_linear_1_1595" x1="50.4111" y1="70.3743" x2="-22.0857" y2="-54.6306" gradientUnits="userSpaceOnUse">
<stop stop-color="#FF2966"/>
<stop offset="0.99984" stop-color="#FFFF00"/>
<stop offset="1" stop-color="#FFFF00"/>
</linearGradient>
<linearGradient id="paint1_linear_1_1595" x1="73.3508" y1="174.939" x2="28.308" y2="7.59717" gradientUnits="userSpaceOnUse">
<stop stop-color="white"/>
<stop offset="1" stop-color="#1D1D1B"/>
</linearGradient>
<linearGradient id="paint2_linear_1_1595" x1="62.0293" y1="41.9815" x2="-3.33765" y2="104.36" gradientUnits="userSpaceOnUse">
<stop stop-color="#FF2966"/>
<stop offset="0.99984" stop-color="#FFFF00"/>
<stop offset="1" stop-color="#FFFF00"/>
</linearGradient>
<linearGradient id="paint3_linear_1_1595" x1="167.785" y1="-29.6589" x2="7.32754" y2="89.2394" gradientUnits="userSpaceOnUse">
<stop stop-color="white"/>
<stop offset="1" stop-color="#1D1D1B"/>
</linearGradient>
<linearGradient id="paint4_linear_1_1595" x1="45.7512" y1="149.197" x2="45.7512" y2="45.3538" gradientUnits="userSpaceOnUse">
<stop stop-color="white"/>
<stop offset="1" stop-color="#1D1D1B"/>
</linearGradient>
<linearGradient id="paint5_linear_1_1595" x1="49.907" y1="86.3935" x2="24.1341" y2="-9.3632" gradientUnits="userSpaceOnUse">
<stop stop-color="#FF2966"/>
<stop offset="0.99984" stop-color="#FFFF00"/>
<stop offset="1" stop-color="#FFFF00"/>
</linearGradient>
<linearGradient id="paint6_linear_1_1595" x1="35.501" y1="-203.178" x2="35.501" y2="49.347" gradientUnits="userSpaceOnUse">
<stop stop-color="white"/>
<stop offset="1" stop-color="#1D1D1B"/>
</linearGradient>
<linearGradient id="paint7_linear_1_1595" x1="76.7703" y1="155.555" x2="39.7354" y2="17.9499" gradientUnits="userSpaceOnUse">
<stop stop-color="white"/>
<stop offset="1" stop-color="#1D1D1B"/>
</linearGradient>
<linearGradient id="paint8_linear_1_1595" x1="50.3299" y1="108.857" x2="50.3299" y2="3.02463" gradientUnits="userSpaceOnUse">
<stop stop-color="#FF2966"/>
<stop offset="0.99984" stop-color="#FFFF00"/>
<stop offset="1" stop-color="#FFFF00"/>
</linearGradient>
<linearGradient id="paint9_linear_1_1595" x1="63.173" y1="73.48" x2="87.287" y2="48.1972" gradientUnits="userSpaceOnUse">
<stop stop-color="#FF2966"/>
<stop offset="0.99984" stop-color="#FFFF00"/>
<stop offset="1" stop-color="#FFFF00"/>
</linearGradient>
<linearGradient id="paint10_linear_1_1595" x1="96.4502" y1="-0.733009" x2="80.0598" y2="60.1603" gradientUnits="userSpaceOnUse">
<stop stop-color="white"/>
<stop offset="1" stop-color="#1D1D1B"/>
</linearGradient>
<linearGradient id="paint11_linear_1_1595" x1="53.5093" y1="62.6786" x2="77.6523" y2="38.644" gradientUnits="userSpaceOnUse">
<stop stop-color="#FF2966"/>
<stop offset="0.99984" stop-color="#FFFF00"/>
<stop offset="1" stop-color="#FFFF00"/>
</linearGradient>
<linearGradient id="paint12_linear_1_1595" x1="-66.9297" y1="55.2681" x2="89.6032" y2="55.2681" gradientUnits="userSpaceOnUse">
<stop stop-color="white"/>
<stop offset="1" stop-color="#1D1D1B"/>
</linearGradient>
<linearGradient id="paint13_linear_1_1595" x1="77.4457" y1="87.6432" x2="54.0386" y2="47.2818" gradientUnits="userSpaceOnUse">
<stop stop-color="white"/>
<stop offset="1" stop-color="#1D1D1B"/>
</linearGradient>
<linearGradient id="paint14_linear_1_1595" x1="85.391" y1="-3.70834" x2="69.0006" y2="57.1806" gradientUnits="userSpaceOnUse">
<stop stop-color="white"/>
<stop offset="1" stop-color="#1D1D1B"/>
</linearGradient>
<linearGradient id="paint15_linear_1_1595" x1="53.7923" y1="-93.1457" x2="53.7923" y2="76.4765" gradientUnits="userSpaceOnUse">
<stop stop-color="white"/>
<stop offset="1" stop-color="#1D1D1B"/>
</linearGradient>
<clipPath id="clip0_1_1595">
<rect width="258" height="94" fill="white"/>
</clipPath>
</defs>
</svg>
